<svg viewBox="0 0 200 200" xmlns="http://www.w3.org/2000/svg">
  <path fill="#F5EDE8" d="M29.8,-52.7C38.6,-46.5,45.6,-38.5,51.6,-29.4C57.7,-20.3,62.7,-10.1,62.7,0C62.7,10.1,57.7,20.2,51.5,29.1C45.3,38,38,45.6,29.3,55.6C20.5,65.6,10.2,77.9,0.7,76.8C-8.9,75.6,-17.8,61,-30.2,53.1C-42.5,45.2,-58.3,44,-64.8,36.2C-71.3,28.5,-68.5,14.2,-70,-0.9C-71.5,-16,-77.2,-31.9,-74.2,-45.7C-71.2,-59.5,-59.5,-71.2,-45.7,-74.4C-31.9,-77.7,-15.9,-72.5,-2.7,-67.8C10.5,-63.1,21,-58.8,29.8,-52.7Z" transform="translate(100 100)" />
</svg>